<svg xmlns="http://www.w3.org/2000/svg" viewBox="0 0 260.53 297.71"><defs><style>.cls-1{fill:#f1f5f9;}</style></defs><g id="Calque_2" data-name="Calque 2"><path class="cls-1" d="M23.93,298.2c32.33-.54,64.67-.68,97-.63s64.47.26,96.71.42q27.4.13,54.79.16a6,6,0,0,0,0-12c-32.32,0-64.65-.21-97-.38s-64.49-.29-96.73-.14q-27.4.14-54.81.57c-3.14.05-6.15,2.72-6,6a6.08,6.08,0,0,0,6,6Z" transform="translate(-17.92 -0.49)"/><path class="cls-1" d="M64.35,290.8c.91-37.14,1.39-74.3,1.65-111.45q.38-55.29.26-110.6,0-31.12,0-62.25a6,6,0,0,0-12,0c0,36.9.07,73.8,0,110.7S54,191.08,53.52,228q-.42,31.39-1.17,62.79a6,6,0,1,0,12,0Z" transform="translate(-17.92 -0.49)"/><path class="cls-1" d="M60.23,12.5c23,.88,46.09,1.08,69.13,1.08,24.32,0,48.63-.25,72.95-.57q18.72-.24,37.46-.51c3.13-.05,6.14-2.73,6-6a6.1,6.1,0,0,0-6-6c-23,.31-46,.66-69.06.88-24.32.22-48.64.32-73,0C85.24,1.24,72.73,1,60.23.5a6,6,0,0,0-6,6,6.13,6.13,0,0,0,6,6Z" transform="translate(-17.92 -0.49)"/><path class="cls-1" d="M66.2,73.28a604.32,604.32,0,0,0,47.42-44.93q6.36-6.72,12.51-13.64c2.09-2.34,2.49-6.2,0-8.48-2.28-2.1-6.25-2.51-8.48,0a604.5,604.5,0,0,1-46,46.37q-6.87,6.21-13.92,12.2c-2.4,2-2.26,6.41,0,8.48a6.14,6.14,0,0,0,8.48,0Z" transform="translate(-17.92 -0.49)"/></g></svg>