<svg xmlns="http://www.w3.org/2000/svg" viewBox="0 0 260.53 297.71"><defs><style>.cls-1{fill:#f1f5f9;}</style></defs><g id="Calque_2" data-name="Calque 2"><path class="cls-1" d="M23.93,298.2c32.33-.54,64.67-.68,97-.63s64.47.26,96.71.42q27.4.13,54.79.16a6,6,0,0,0,0-12c-32.32,0-64.65-.21-97-.38s-64.49-.29-96.73-.14q-27.4.14-54.81.57c-3.14.05-6.15,2.72-6,6a6.08,6.08,0,0,0,6,6Z" transform="translate(-17.92 -0.49)"/><path class="cls-1" d="M64.35,290.8c.91-37.14,1.39-74.3,1.65-111.45q.38-55.29.26-110.6,0-31.12,0-62.25a6,6,0,0,0-12,0c0,36.9.07,73.8,0,110.7S54,191.08,53.52,228q-.42,31.39-1.17,62.79a6,6,0,1,0,12,0Z" transform="translate(-17.92 -0.49)"/><path class="cls-1" d="M60.23,12.5c23,.88,46.09,1.08,69.13,1.08,24.32,0,48.63-.25,72.95-.57q18.72-.24,37.46-.51c3.13-.05,6.14-2.73,6-6a6.1,6.1,0,0,0-6-6c-23,.31-46,.66-69.06.88-24.32.22-48.64.32-73,0C85.24,1.24,72.73,1,60.23.5a6,6,0,0,0-6,6,6.13,6.13,0,0,0,6,6Z" transform="translate(-17.92 -0.49)"/><path class="cls-1" d="M66.2,73.28a604.32,604.32,0,0,0,47.42-44.93q6.36-6.72,12.51-13.64c2.09-2.34,2.49-6.2,0-8.48-2.28-2.1-6.25-2.51-8.48,0a604.5,604.5,0,0,1-46,46.37q-6.87,6.21-13.92,12.2c-2.4,2-2.26,6.41,0,8.48a6.14,6.14,0,0,0,8.48,0Z" transform="translate(-17.92 -0.49)"/><path class="cls-1" d="M212,6.92c-.6,17.4.13,34.82-.44,52.22-.16,5-.44,10-.87,15-.28,3.13,3,6.13,6,6a6.17,6.17,0,0,0,6-6c1.52-17.46,1-35,1.06-52.5,0-4.93.08-9.85.25-14.77a6.05,6.05,0,0,0-6-6,6.12,6.12,0,0,0-6,6Z" transform="translate(-17.92 -0.49)"/><path class="cls-1" d="M216.38,68.18a36.88,36.88,0,0,0-37.5,28.39,40.84,40.84,0,0,0,2.73,25.69A42,42,0,0,0,197,140c14,9.15,33,8.06,46.11-2.08s18.78-29,12.5-44.47a38.48,38.48,0,0,0-12.12-16.31,42.48,42.48,0,0,0-20.14-8.34,65.67,65.67,0,0,0-7-.64,6.05,6.05,0,0,0-6,6,6.13,6.13,0,0,0,6,6c.89,0,1.78.07,2.66.14.47,0,.93.07,1.39.12l.59.07c.82.08-1.24-.19-.44-.06a49.1,49.1,0,0,1,4.94,1c1.53.4,3,.94,4.49,1.48.62.23-.71-.31-.65-.28s.41.18.62.27l.9.42c.69.34,1.37.69,2,1.07,1.25.71,2.41,1.53,3.59,2.36.51.36-.66-.53-.6-.47s.32.26.48.39l.7.6c.54.47,1.06.95,1.56,1.46s.91.94,1.34,1.43c.23.26.46.52.68.79s.18.24.28.35c.47.53-.79-1.09-.39-.51.76,1.1,1.53,2.17,2.2,3.33q.48.83.9,1.68c.16.31.31.61.45.92s.61,1.38.17.36.12.35.22.61.25.7.36,1.06c.27.83.5,1.68.7,2.53s.31,1.59.45,2.39-.08-.71-.08-.67a6.2,6.2,0,0,0,.08.74c0,.44.07.87.1,1.31a34.2,34.2,0,0,1-.09,5.06c0,.28-.2,1.69-.07.69s-.05.27-.09.5c-.16.87-.34,1.72-.56,2.57s-.43,1.57-.69,2.34c-.14.42-.29.83-.44,1.24-.07.18-.14.35-.2.53-.29.75,0-.16.17-.4-.82,1.48-1.46,3-2.37,4.48-.43.68-1,1.31-1.38,2,.78-1.36.21-.27-.1.11s-.57.66-.87,1c-1.19,1.31-2.54,2.38-3.84,3.57,0,0,1-.74.47-.37l-.45.33-.93.64c-.73.48-1.48.93-2.24,1.36s-1.54.82-2.34,1.19l-.51.23c-.6.28.59-.25.57-.24-.48.15-.94.37-1.4.54a35.67,35.67,0,0,1-4.88,1.37l-1.11.22c-.45.07-1.86.16-.07,0-.88.06-1.75.19-2.62.23a35.6,35.6,0,0,1-5.06-.12c-.24,0-1.52-.18-.51,0s-.48-.09-.68-.13c-.87-.16-1.72-.36-2.57-.59s-1.52-.44-2.27-.71l-1-.38c-1.29-.5,1.05.49-.24-.1a35.24,35.24,0,0,1-4.31-2.35c-.66-.42-1.31-.87-2-1.34-.14-.11-.29-.23-.44-.33s1,.8.5.38l-1.12-.94a36.77,36.77,0,0,1-3.48-3.47c-.24-.27-.48-.55-.71-.83a6.36,6.36,0,0,0-.46-.57s.77,1,.38.49c-.5-.69-1-1.37-1.46-2.09a36.66,36.66,0,0,1-2.39-4.29c-.15-.33-.28-.68-.45-1,.05.1.55,1.37.19.42-.06-.17-.13-.34-.2-.51-.3-.79-.57-1.6-.8-2.42s-.43-1.56-.6-2.36c-.09-.39-.16-.78-.23-1.17s-.09-.52-.13-.79c-.14-.82.06.12,0,.41,0-.83-.17-1.74-.2-2.58s0-1.86,0-2.79.24-1.75.2-2.58c0,0-.2,1.28-.08.6l.09-.59q.12-.78.3-1.56A38.2,38.2,0,0,1,192,94.83c.22-.62-.23.52-.23.52a5.29,5.29,0,0,0,.25-.54c.19-.42.39-.84.6-1.25.43-.82.89-1.62,1.39-2.4.21-.33.43-.66.66-1a3.79,3.79,0,0,1,.47-.65s-.75.93-.34.44c.56-.66,1.12-1.33,1.72-2s1.13-1.15,1.73-1.69c.28-.25.56-.5.85-.74a3.82,3.82,0,0,0,.57-.47c0,.15-1,.78-.32.26a33.36,33.36,0,0,1,4.29-2.67c.39-.21.78-.4,1.18-.58l.52-.24c.6-.28-.59.25-.57.24.85-.22,1.67-.63,2.5-.89s1.6-.45,2.4-.63l1.32-.26c.19,0,.38,0,.57-.09.8-.15-1.25.13-.44.06a39.09,39.09,0,0,1,5.3-.13,6,6,0,0,0,6-6,6.12,6.12,0,0,0-6-6Z" transform="translate(-17.92 -0.49)"/><path class="cls-1" d="M212.09,140.67q-1.32,31.79-1.62,63.59-.09,9-.09,17.89a6,6,0,0,0,12,0q0-31.8,1.05-63.6.28-8.94.66-17.88a6,6,0,0,0-6-6,6.13,6.13,0,0,0-6,6Z" transform="translate(-17.92 -0.49)"/><path class="cls-1" d="M211.2,220.51c-4.69,6.51-9.28,13.09-13.61,19.84-2,3.07-3.83,6.21-5.8,9.28s-3.84,5.9-5.62,8.94a93.1,93.1,0,0,0-6.3,13.08c-1.16,2.93,1.26,6.71,4.19,7.38,3.45.79,6.14-1,7.38-4.19.09-.23.74-1.73.4-1s.24-.55.33-.75c.41-.94.85-1.87,1.31-2.79.82-1.68,1.71-3.33,2.65-5,1.73-3,3.63-5.92,5.51-8.84,4.09-6.33,8-12.77,12.23-19q3.78-5.51,7.69-10.92c1.84-2.56.53-6.8-2.15-8.21-3.1-1.64-6.24-.58-8.21,2.15Z" transform="translate(-17.92 -0.49)"/><path class="cls-1" d="M210.6,225.13a114.49,114.49,0,0,0,25.32,42.64c3.16,3.4,6.5,6.63,10,9.72,2.34,2.09,6.21,2.48,8.48,0,2.1-2.29,2.5-6.25,0-8.49a136.84,136.84,0,0,1-16.2-17s-.48-.51-.48-.61c0,.06.88,1.16.22.29l-.81-1.08c-.58-.78-1.15-1.56-1.7-2.35q-1.66-2.37-3.2-4.83a100.07,100.07,0,0,1-5.52-10.06c-.45-.95-.89-1.9-1.31-2.87-.11-.24-.21-.48-.32-.73-.32-.72.58,1.4.06.15l-.6-1.48c-.85-2.14-1.62-4.32-2.33-6.51-1-3-4.2-5.22-7.38-4.19-3,1-5.23,4.19-4.19,7.38Z" transform="translate(-17.92 -0.49)"/><path class="cls-1" d="M214.81,161.4c-11.78,3-23.34,6.29-33.65,12.94-3.21,2.08-6.3,4.35-9.33,6.68a6.59,6.59,0,0,0-2.76,3.59,6.11,6.11,0,0,0,.61,4.62c1.57,2.45,5.55,4.2,8.2,2.15a106.17,106.17,0,0,1,15.41-10.23c1.12-.58,2.25-1.13,3.39-1.64l1-.43c.93-.41-1.28.52-.33.14.6-.24,1.21-.49,1.82-.72,2.59-1,5.23-1.84,7.9-2.61,3.63-1.06,7.3-2,11-2.92a6,6,0,0,0,4.19-7.38,6.12,6.12,0,0,0-7.38-4.19Z" transform="translate(-17.92 -0.49)"/></g></svg>